<svg width="100" height="100" viewBox="0 0 100 100" fill="none" xmlns="http://www.w3.org/2000/svg">
<path d="M20.6328 86.584V13.4161H52.215C57.6455 13.4161 62.3971 14.4879 66.4699 16.6315C70.5427 18.7751 73.7105 21.788 75.9732 25.6703C78.2358 29.5526 79.3672 34.0899 79.3672 39.2821C79.3672 44.522 78.2001 49.0592 75.866 52.8939C73.5557 56.7285 70.3045 59.6819 66.1126 61.7541C61.9446 63.8262 57.0738 64.8623 51.5005 64.8623H32.6369V49.4284H47.4991C49.8333 49.4284 51.8221 49.0235 53.4655 48.2137C55.1327 47.3801 56.407 46.2011 57.2882 44.6768C58.1933 43.1525 58.6458 41.3542 58.6458 39.2821C58.6458 37.1861 58.1933 35.3998 57.2882 33.9231C56.407 32.4226 55.1327 31.2794 53.4655 30.4934C51.8221 29.6836 49.8333 29.2787 47.4991 29.2787H40.4968V86.584H20.6328Z" fill="#FF005C"/>
</svg>
